<mxfile host="app.diagrams.net" modified="2021-12-19T09:06:15.015Z" agent="5.0 (Windows NT 10.0; Win64; x64) AppleWebKit/537.36 (KHTML, like Gecko) Chrome/96.0.4664.110 Safari/537.36" etag="XxH72cTwWjAM4BIECsAc" version="16.0.0" type="github">
  <diagram id="vUh3IQ31XLDNc-h7DQth" name="Page-1">
    <mxGraphModel dx="868" dy="393" grid="1" gridSize="10" guides="1" tooltips="1" connect="1" arrows="1" fold="1" page="1" pageScale="1" pageWidth="827" pageHeight="1169" math="0" shadow="0">
      <root>
        <mxCell id="0" />
        <mxCell id="1" parent="0" />
        <mxCell id="qJWK-md46tvf5ZSXV3n9-1" value="Nhân viên" style="rounded=0;whiteSpace=wrap;html=1;" vertex="1" parent="1">
          <mxGeometry x="180" y="360" width="120" height="40" as="geometry" />
        </mxCell>
        <mxCell id="qJWK-md46tvf5ZSXV3n9-2" value="Khách hàng" style="rounded=0;whiteSpace=wrap;html=1;" vertex="1" parent="1">
          <mxGeometry x="360" y="360" width="120" height="40" as="geometry" />
        </mxCell>
        <mxCell id="qJWK-md46tvf5ZSXV3n9-3" value="Nhà sản xuất" style="rounded=0;whiteSpace=wrap;html=1;" vertex="1" parent="1">
          <mxGeometry x="600" y="360" width="120" height="40" as="geometry" />
        </mxCell>
        <mxCell id="qJWK-md46tvf5ZSXV3n9-4" value="Sản phẩm" style="rounded=0;whiteSpace=wrap;html=1;" vertex="1" parent="1">
          <mxGeometry x="600" y="480" width="120" height="40" as="geometry" />
        </mxCell>
        <mxCell id="qJWK-md46tvf5ZSXV3n9-5" value="Hóa đơn" style="rounded=0;whiteSpace=wrap;html=1;" vertex="1" parent="1">
          <mxGeometry x="360" y="480" width="120" height="40" as="geometry" />
        </mxCell>
        <mxCell id="qJWK-md46tvf5ZSXV3n9-6" value="" style="endArrow=classic;html=1;rounded=0;exitX=0.25;exitY=1;exitDx=0;exitDy=0;entryX=0.25;entryY=0;entryDx=0;entryDy=0;" edge="1" parent="1" source="qJWK-md46tvf5ZSXV3n9-3" target="qJWK-md46tvf5ZSXV3n9-4">
          <mxGeometry width="50" height="50" relative="1" as="geometry">
            <mxPoint x="400" y="560" as="sourcePoint" />
            <mxPoint x="450" y="510" as="targetPoint" />
          </mxGeometry>
        </mxCell>
        <mxCell id="qJWK-md46tvf5ZSXV3n9-7" value="" style="endArrow=classic;html=1;rounded=0;entryX=0.75;entryY=1;entryDx=0;entryDy=0;exitX=0.75;exitY=0;exitDx=0;exitDy=0;" edge="1" parent="1" source="qJWK-md46tvf5ZSXV3n9-4" target="qJWK-md46tvf5ZSXV3n9-3">
          <mxGeometry width="50" height="50" relative="1" as="geometry">
            <mxPoint x="400" y="560" as="sourcePoint" />
            <mxPoint x="450" y="510" as="targetPoint" />
          </mxGeometry>
        </mxCell>
        <mxCell id="qJWK-md46tvf5ZSXV3n9-8" value="1" style="text;html=1;align=center;verticalAlign=middle;resizable=0;points=[];autosize=1;strokeColor=none;fillColor=none;" vertex="1" parent="1">
          <mxGeometry x="610" y="400" width="20" height="20" as="geometry" />
        </mxCell>
        <mxCell id="qJWK-md46tvf5ZSXV3n9-9" value="n" style="text;html=1;align=center;verticalAlign=middle;resizable=0;points=[];autosize=1;strokeColor=none;fillColor=none;" vertex="1" parent="1">
          <mxGeometry x="610" y="460" width="20" height="20" as="geometry" />
        </mxCell>
        <mxCell id="qJWK-md46tvf5ZSXV3n9-10" value="1" style="text;html=1;align=center;verticalAlign=middle;resizable=0;points=[];autosize=1;strokeColor=none;fillColor=none;" vertex="1" parent="1">
          <mxGeometry x="690" y="400" width="20" height="20" as="geometry" />
        </mxCell>
        <mxCell id="qJWK-md46tvf5ZSXV3n9-11" value="1" style="text;html=1;align=center;verticalAlign=middle;resizable=0;points=[];autosize=1;strokeColor=none;fillColor=none;" vertex="1" parent="1">
          <mxGeometry x="690" y="460" width="20" height="20" as="geometry" />
        </mxCell>
        <mxCell id="qJWK-md46tvf5ZSXV3n9-12" value="" style="endArrow=classic;html=1;rounded=0;exitX=0.25;exitY=1;exitDx=0;exitDy=0;entryX=0.25;entryY=0;entryDx=0;entryDy=0;" edge="1" parent="1" source="qJWK-md46tvf5ZSXV3n9-2" target="qJWK-md46tvf5ZSXV3n9-5">
          <mxGeometry width="50" height="50" relative="1" as="geometry">
            <mxPoint x="400" y="560" as="sourcePoint" />
            <mxPoint x="450" y="510" as="targetPoint" />
          </mxGeometry>
        </mxCell>
        <mxCell id="qJWK-md46tvf5ZSXV3n9-13" value="" style="endArrow=classic;html=1;rounded=0;entryX=0.75;entryY=1;entryDx=0;entryDy=0;exitX=0.75;exitY=0;exitDx=0;exitDy=0;" edge="1" parent="1" source="qJWK-md46tvf5ZSXV3n9-5" target="qJWK-md46tvf5ZSXV3n9-2">
          <mxGeometry width="50" height="50" relative="1" as="geometry">
            <mxPoint x="400" y="560" as="sourcePoint" />
            <mxPoint x="450" y="510" as="targetPoint" />
          </mxGeometry>
        </mxCell>
        <mxCell id="qJWK-md46tvf5ZSXV3n9-14" value="1" style="text;html=1;align=center;verticalAlign=middle;resizable=0;points=[];autosize=1;strokeColor=none;fillColor=none;" vertex="1" parent="1">
          <mxGeometry x="370" y="400" width="20" height="20" as="geometry" />
        </mxCell>
        <mxCell id="qJWK-md46tvf5ZSXV3n9-15" value="n" style="text;html=1;align=center;verticalAlign=middle;resizable=0;points=[];autosize=1;strokeColor=none;fillColor=none;" vertex="1" parent="1">
          <mxGeometry x="370" y="460" width="20" height="20" as="geometry" />
        </mxCell>
        <mxCell id="qJWK-md46tvf5ZSXV3n9-16" value="1" style="text;html=1;align=center;verticalAlign=middle;resizable=0;points=[];autosize=1;strokeColor=none;fillColor=none;" vertex="1" parent="1">
          <mxGeometry x="450" y="460" width="20" height="20" as="geometry" />
        </mxCell>
        <mxCell id="qJWK-md46tvf5ZSXV3n9-17" value="1" style="text;html=1;align=center;verticalAlign=middle;resizable=0;points=[];autosize=1;strokeColor=none;fillColor=none;" vertex="1" parent="1">
          <mxGeometry x="450" y="400" width="20" height="20" as="geometry" />
        </mxCell>
        <mxCell id="qJWK-md46tvf5ZSXV3n9-18" value="" style="endArrow=classic;html=1;rounded=0;entryX=0;entryY=0.25;entryDx=0;entryDy=0;exitX=1;exitY=0.25;exitDx=0;exitDy=0;" edge="1" parent="1" source="qJWK-md46tvf5ZSXV3n9-5" target="qJWK-md46tvf5ZSXV3n9-4">
          <mxGeometry width="50" height="50" relative="1" as="geometry">
            <mxPoint x="400" y="560" as="sourcePoint" />
            <mxPoint x="450" y="510" as="targetPoint" />
          </mxGeometry>
        </mxCell>
        <mxCell id="qJWK-md46tvf5ZSXV3n9-19" value="" style="endArrow=classic;html=1;rounded=0;entryX=1;entryY=0.75;entryDx=0;entryDy=0;exitX=0;exitY=0.75;exitDx=0;exitDy=0;" edge="1" parent="1" source="qJWK-md46tvf5ZSXV3n9-4" target="qJWK-md46tvf5ZSXV3n9-5">
          <mxGeometry width="50" height="50" relative="1" as="geometry">
            <mxPoint x="400" y="560" as="sourcePoint" />
            <mxPoint x="450" y="510" as="targetPoint" />
          </mxGeometry>
        </mxCell>
        <mxCell id="qJWK-md46tvf5ZSXV3n9-20" value="1" style="text;html=1;align=center;verticalAlign=middle;resizable=0;points=[];autosize=1;strokeColor=none;fillColor=none;" vertex="1" parent="1">
          <mxGeometry x="480" y="470" width="20" height="20" as="geometry" />
        </mxCell>
        <mxCell id="qJWK-md46tvf5ZSXV3n9-21" value="n" style="text;html=1;align=center;verticalAlign=middle;resizable=0;points=[];autosize=1;strokeColor=none;fillColor=none;" vertex="1" parent="1">
          <mxGeometry x="580" y="470" width="20" height="20" as="geometry" />
        </mxCell>
        <mxCell id="qJWK-md46tvf5ZSXV3n9-22" value="n" style="text;html=1;align=center;verticalAlign=middle;resizable=0;points=[];autosize=1;strokeColor=none;fillColor=none;" vertex="1" parent="1">
          <mxGeometry x="480" y="510" width="20" height="20" as="geometry" />
        </mxCell>
        <mxCell id="qJWK-md46tvf5ZSXV3n9-23" value="1" style="text;html=1;align=center;verticalAlign=middle;resizable=0;points=[];autosize=1;strokeColor=none;fillColor=none;" vertex="1" parent="1">
          <mxGeometry x="580" y="510" width="20" height="20" as="geometry" />
        </mxCell>
        <mxCell id="qJWK-md46tvf5ZSXV3n9-26" value="1" style="text;html=1;align=center;verticalAlign=middle;resizable=0;points=[];autosize=1;strokeColor=none;fillColor=none;" vertex="1" parent="1">
          <mxGeometry x="250" y="400" width="20" height="20" as="geometry" />
        </mxCell>
        <mxCell id="qJWK-md46tvf5ZSXV3n9-30" value="Sửa" style="text;html=1;align=center;verticalAlign=middle;resizable=0;points=[];autosize=1;strokeColor=none;fillColor=none;" vertex="1" parent="1">
          <mxGeometry x="220" y="490" width="40" height="20" as="geometry" />
        </mxCell>
        <mxCell id="qJWK-md46tvf5ZSXV3n9-32" value="Thể loại" style="rounded=0;whiteSpace=wrap;html=1;" vertex="1" parent="1">
          <mxGeometry x="800" y="360" width="120" height="40" as="geometry" />
        </mxCell>
        <mxCell id="qJWK-md46tvf5ZSXV3n9-33" value="Hóa đơn chi tiết" style="rounded=0;whiteSpace=wrap;html=1;" vertex="1" parent="1">
          <mxGeometry x="360" y="600" width="120" height="40" as="geometry" />
        </mxCell>
        <mxCell id="qJWK-md46tvf5ZSXV3n9-38" value="" style="endArrow=classic;html=1;rounded=0;exitX=0.25;exitY=1;exitDx=0;exitDy=0;entryX=0.25;entryY=0;entryDx=0;entryDy=0;" edge="1" parent="1" source="qJWK-md46tvf5ZSXV3n9-5" target="qJWK-md46tvf5ZSXV3n9-33">
          <mxGeometry width="50" height="50" relative="1" as="geometry">
            <mxPoint x="390" y="584.5" as="sourcePoint" />
            <mxPoint x="440" y="534.5" as="targetPoint" />
          </mxGeometry>
        </mxCell>
        <mxCell id="qJWK-md46tvf5ZSXV3n9-39" value="" style="endArrow=classic;html=1;rounded=0;entryX=0.75;entryY=1;entryDx=0;entryDy=0;exitX=0.75;exitY=0;exitDx=0;exitDy=0;" edge="1" parent="1" source="qJWK-md46tvf5ZSXV3n9-33" target="qJWK-md46tvf5ZSXV3n9-5">
          <mxGeometry width="50" height="50" relative="1" as="geometry">
            <mxPoint x="590" y="560" as="sourcePoint" />
            <mxPoint x="640" y="510" as="targetPoint" />
          </mxGeometry>
        </mxCell>
        <mxCell id="qJWK-md46tvf5ZSXV3n9-40" value="1" style="text;html=1;align=center;verticalAlign=middle;resizable=0;points=[];autosize=1;strokeColor=none;fillColor=none;" vertex="1" parent="1">
          <mxGeometry x="370" y="520" width="20" height="20" as="geometry" />
        </mxCell>
        <mxCell id="qJWK-md46tvf5ZSXV3n9-41" value="1" style="text;html=1;align=center;verticalAlign=middle;resizable=0;points=[];autosize=1;strokeColor=none;fillColor=none;" vertex="1" parent="1">
          <mxGeometry x="370" y="580" width="20" height="20" as="geometry" />
        </mxCell>
        <mxCell id="qJWK-md46tvf5ZSXV3n9-42" value="1" style="text;html=1;align=center;verticalAlign=middle;resizable=0;points=[];autosize=1;strokeColor=none;fillColor=none;" vertex="1" parent="1">
          <mxGeometry x="450" y="520" width="20" height="20" as="geometry" />
        </mxCell>
        <mxCell id="qJWK-md46tvf5ZSXV3n9-43" value="1" style="text;html=1;align=center;verticalAlign=middle;resizable=0;points=[];autosize=1;strokeColor=none;fillColor=none;" vertex="1" parent="1">
          <mxGeometry x="450" y="580" width="20" height="20" as="geometry" />
        </mxCell>
        <mxCell id="qJWK-md46tvf5ZSXV3n9-44" value="Tình trạng hóa đơn" style="rounded=0;whiteSpace=wrap;html=1;" vertex="1" parent="1">
          <mxGeometry x="180" y="600" width="120" height="40" as="geometry" />
        </mxCell>
        <mxCell id="qJWK-md46tvf5ZSXV3n9-45" value="" style="endArrow=classic;html=1;rounded=0;entryX=0.75;entryY=0;entryDx=0;entryDy=0;exitX=0.75;exitY=1;exitDx=0;exitDy=0;" edge="1" parent="1" source="qJWK-md46tvf5ZSXV3n9-1" target="qJWK-md46tvf5ZSXV3n9-44">
          <mxGeometry width="50" height="50" relative="1" as="geometry">
            <mxPoint x="240" y="510" as="sourcePoint" />
            <mxPoint x="420" y="510" as="targetPoint" />
            <Array as="points">
              <mxPoint x="270" y="540" />
            </Array>
          </mxGeometry>
        </mxCell>
        <mxCell id="qJWK-md46tvf5ZSXV3n9-47" value="" style="endArrow=classic;html=1;rounded=0;entryX=0.183;entryY=1.025;entryDx=0;entryDy=0;entryPerimeter=0;" edge="1" parent="1" target="qJWK-md46tvf5ZSXV3n9-1">
          <mxGeometry width="50" height="50" relative="1" as="geometry">
            <mxPoint x="202" y="600" as="sourcePoint" />
            <mxPoint x="420" y="510" as="targetPoint" />
          </mxGeometry>
        </mxCell>
        <mxCell id="qJWK-md46tvf5ZSXV3n9-48" value="1" style="text;html=1;align=center;verticalAlign=middle;resizable=0;points=[];autosize=1;strokeColor=none;fillColor=none;" vertex="1" parent="1">
          <mxGeometry x="180" y="400" width="20" height="20" as="geometry" />
        </mxCell>
        <mxCell id="qJWK-md46tvf5ZSXV3n9-49" value="1" style="text;html=1;align=center;verticalAlign=middle;resizable=0;points=[];autosize=1;strokeColor=none;fillColor=none;" vertex="1" parent="1">
          <mxGeometry x="180" y="580" width="20" height="20" as="geometry" />
        </mxCell>
        <mxCell id="qJWK-md46tvf5ZSXV3n9-50" value="n" style="text;html=1;align=center;verticalAlign=middle;resizable=0;points=[];autosize=1;strokeColor=none;fillColor=none;" vertex="1" parent="1">
          <mxGeometry x="250" y="580" width="20" height="20" as="geometry" />
        </mxCell>
        <mxCell id="qJWK-md46tvf5ZSXV3n9-51" value="" style="endArrow=classic;html=1;rounded=0;exitX=0.75;exitY=1;exitDx=0;exitDy=0;entryX=1;entryY=0.75;entryDx=0;entryDy=0;" edge="1" parent="1" source="qJWK-md46tvf5ZSXV3n9-32" target="qJWK-md46tvf5ZSXV3n9-4">
          <mxGeometry width="50" height="50" relative="1" as="geometry">
            <mxPoint x="540" y="520" as="sourcePoint" />
            <mxPoint x="840" y="440" as="targetPoint" />
            <Array as="points">
              <mxPoint x="890" y="510" />
            </Array>
          </mxGeometry>
        </mxCell>
        <mxCell id="qJWK-md46tvf5ZSXV3n9-52" value="" style="endArrow=classic;html=1;rounded=0;entryX=0.25;entryY=1;entryDx=0;entryDy=0;exitX=1;exitY=0.25;exitDx=0;exitDy=0;" edge="1" parent="1" source="qJWK-md46tvf5ZSXV3n9-4" target="qJWK-md46tvf5ZSXV3n9-32">
          <mxGeometry width="50" height="50" relative="1" as="geometry">
            <mxPoint x="540" y="520" as="sourcePoint" />
            <mxPoint x="590" y="470" as="targetPoint" />
            <Array as="points">
              <mxPoint x="830" y="490" />
            </Array>
          </mxGeometry>
        </mxCell>
        <mxCell id="qJWK-md46tvf5ZSXV3n9-54" value="" style="endArrow=classic;html=1;rounded=0;exitX=1;exitY=0.25;exitDx=0;exitDy=0;entryX=0;entryY=0.25;entryDx=0;entryDy=0;" edge="1" parent="1" source="qJWK-md46tvf5ZSXV3n9-44" target="qJWK-md46tvf5ZSXV3n9-33">
          <mxGeometry width="50" height="50" relative="1" as="geometry">
            <mxPoint x="560" y="540" as="sourcePoint" />
            <mxPoint x="610" y="490" as="targetPoint" />
          </mxGeometry>
        </mxCell>
        <mxCell id="qJWK-md46tvf5ZSXV3n9-55" value="" style="endArrow=classic;html=1;rounded=0;entryX=1;entryY=0.75;entryDx=0;entryDy=0;exitX=0;exitY=0.75;exitDx=0;exitDy=0;" edge="1" parent="1" source="qJWK-md46tvf5ZSXV3n9-33" target="qJWK-md46tvf5ZSXV3n9-44">
          <mxGeometry width="50" height="50" relative="1" as="geometry">
            <mxPoint x="560" y="540" as="sourcePoint" />
            <mxPoint x="610" y="490" as="targetPoint" />
          </mxGeometry>
        </mxCell>
        <mxCell id="qJWK-md46tvf5ZSXV3n9-56" value="1" style="text;html=1;align=center;verticalAlign=middle;resizable=0;points=[];autosize=1;strokeColor=none;fillColor=none;" vertex="1" parent="1">
          <mxGeometry x="300" y="590" width="20" height="20" as="geometry" />
        </mxCell>
        <mxCell id="qJWK-md46tvf5ZSXV3n9-57" value="1" style="text;html=1;align=center;verticalAlign=middle;resizable=0;points=[];autosize=1;strokeColor=none;fillColor=none;" vertex="1" parent="1">
          <mxGeometry x="340" y="590" width="20" height="20" as="geometry" />
        </mxCell>
        <mxCell id="qJWK-md46tvf5ZSXV3n9-58" value="1" style="text;html=1;align=center;verticalAlign=middle;resizable=0;points=[];autosize=1;strokeColor=none;fillColor=none;" vertex="1" parent="1">
          <mxGeometry x="300" y="630" width="20" height="20" as="geometry" />
        </mxCell>
        <mxCell id="qJWK-md46tvf5ZSXV3n9-59" value="1" style="text;html=1;align=center;verticalAlign=middle;resizable=0;points=[];autosize=1;strokeColor=none;fillColor=none;" vertex="1" parent="1">
          <mxGeometry x="340" y="630" width="20" height="20" as="geometry" />
        </mxCell>
        <mxCell id="qJWK-md46tvf5ZSXV3n9-60" value="1" style="text;html=1;align=center;verticalAlign=middle;resizable=0;points=[];autosize=1;strokeColor=none;fillColor=none;" vertex="1" parent="1">
          <mxGeometry x="720" y="470" width="20" height="20" as="geometry" />
        </mxCell>
        <mxCell id="qJWK-md46tvf5ZSXV3n9-61" value="1" style="text;html=1;align=center;verticalAlign=middle;resizable=0;points=[];autosize=1;strokeColor=none;fillColor=none;" vertex="1" parent="1">
          <mxGeometry x="810" y="400" width="20" height="20" as="geometry" />
        </mxCell>
        <mxCell id="qJWK-md46tvf5ZSXV3n9-62" value="1" style="text;html=1;align=center;verticalAlign=middle;resizable=0;points=[];autosize=1;strokeColor=none;fillColor=none;" vertex="1" parent="1">
          <mxGeometry x="890" y="400" width="20" height="20" as="geometry" />
        </mxCell>
        <mxCell id="qJWK-md46tvf5ZSXV3n9-63" value="n" style="text;html=1;align=center;verticalAlign=middle;resizable=0;points=[];autosize=1;strokeColor=none;fillColor=none;" vertex="1" parent="1">
          <mxGeometry x="720" y="520" width="20" height="20" as="geometry" />
        </mxCell>
        <mxCell id="qJWK-md46tvf5ZSXV3n9-64" value="" style="endArrow=classic;html=1;rounded=0;entryX=1;entryY=0.25;entryDx=0;entryDy=0;exitX=0.25;exitY=1;exitDx=0;exitDy=0;" edge="1" parent="1" source="qJWK-md46tvf5ZSXV3n9-4" target="qJWK-md46tvf5ZSXV3n9-33">
          <mxGeometry width="50" height="50" relative="1" as="geometry">
            <mxPoint x="560" y="540" as="sourcePoint" />
            <mxPoint x="610" y="490" as="targetPoint" />
            <Array as="points">
              <mxPoint x="630" y="610" />
            </Array>
          </mxGeometry>
        </mxCell>
        <mxCell id="qJWK-md46tvf5ZSXV3n9-66" value="n" style="text;html=1;align=center;verticalAlign=middle;resizable=0;points=[];autosize=1;strokeColor=none;fillColor=none;" vertex="1" parent="1">
          <mxGeometry x="480" y="590" width="20" height="20" as="geometry" />
        </mxCell>
        <mxCell id="qJWK-md46tvf5ZSXV3n9-67" value="1" style="text;html=1;align=center;verticalAlign=middle;resizable=0;points=[];autosize=1;strokeColor=none;fillColor=none;" vertex="1" parent="1">
          <mxGeometry x="610" y="520" width="20" height="20" as="geometry" />
        </mxCell>
        <mxCell id="qJWK-md46tvf5ZSXV3n9-68" value="1" style="text;html=1;align=center;verticalAlign=middle;resizable=0;points=[];autosize=1;strokeColor=none;fillColor=none;" vertex="1" parent="1">
          <mxGeometry x="690" y="520" width="20" height="20" as="geometry" />
        </mxCell>
        <mxCell id="qJWK-md46tvf5ZSXV3n9-69" value="" style="endArrow=classic;html=1;rounded=0;exitX=1;exitY=0.75;exitDx=0;exitDy=0;entryX=0.75;entryY=1;entryDx=0;entryDy=0;" edge="1" parent="1" source="qJWK-md46tvf5ZSXV3n9-33" target="qJWK-md46tvf5ZSXV3n9-4">
          <mxGeometry width="50" height="50" relative="1" as="geometry">
            <mxPoint x="560" y="540" as="sourcePoint" />
            <mxPoint x="610" y="490" as="targetPoint" />
            <Array as="points">
              <mxPoint x="690" y="630" />
            </Array>
          </mxGeometry>
        </mxCell>
        <mxCell id="qJWK-md46tvf5ZSXV3n9-70" value="1" style="text;html=1;align=center;verticalAlign=middle;resizable=0;points=[];autosize=1;strokeColor=none;fillColor=none;" vertex="1" parent="1">
          <mxGeometry x="480" y="630" width="20" height="20" as="geometry" />
        </mxCell>
      </root>
    </mxGraphModel>
  </diagram>
</mxfile>
